HIERARCHY
ROOT Hips
{
	OFFSET	0.00	0.00	0.00
	CHANNELS 6 Xposition Yposition Zposition Zrotation Xrotation Yrotation
	JOINT Spine
	{
		OFFSET	 0.00	0.01	 0.00
		CHANNELS 3 Zrotation Xrotation Yrotation
		JOINT Spine1
		{
			OFFSET	 0.00	 2.45913012437421	 0.00
			CHANNELS 3 Zrotation Xrotation Yrotation
            JOINT Neck
            {
                OFFSET	 0.00	 2.48462964506057	 0.00
                CHANNELS 3 Zrotation Xrotation Yrotation
                JOINT Head
                {
                    OFFSET	 0.00	 0.927524780924562	 0.00
                    CHANNELS 3 Zrotation Xrotation Yrotation
                    End Site 
                    {
                        OFFSET	 0.00	 1.14999962169752	 0.00
                    }
                }
            }
			JOINT LeftShoulder
			{
				OFFSET	 0.00	 2.48462964506057	 0.00
				CHANNELS 3 Zrotation Xrotation Yrotation
				JOINT LeftUpArm
				{
					OFFSET	 0.00	 1.24881979654096	 0.00
					CHANNELS 3 Zrotation Xrotation Yrotation
					JOINT LeftForeArm
					{
						OFFSET	 0.00	2.59758046908119	 0.00
						CHANNELS 3 Zrotation Xrotation Yrotation
						JOINT LeftHand
						{
							OFFSET	 0.00	2.45542024364365	 0.00
							CHANNELS 3 Zrotation Xrotation Yrotation
							JOINT LeftHandThumb 
							{
								OFFSET	 0.00	0.00	 0.00
								CHANNELS 3 Zrotation Xrotation Yrotation
								End Site
								{
									OFFSET	 0.00	0.00	1.00000003353624
								}
							}
							JOINT L_Wrist_End 
							{
								OFFSET	 0.00	0.99999967115358	 0.00
								CHANNELS 3 Zrotation Xrotation Yrotation
								End Site 
								{
									OFFSET	 0.00	 0.00	 0.00
								}
							}
						}
					}
				}
			}
			JOINT RightShoulder
			{
				OFFSET	 0.00	 2.48462964506057	 0.00
				CHANNELS 3 Zrotation Xrotation Yrotation
				JOINT RightUpArm
				{
					OFFSET	 0.00	 1.24881979654096	 0.00
					CHANNELS 3 Zrotation Xrotation Yrotation
					JOINT RightForeArm
					{
						OFFSET	 0.00	2.59758046908119	 0.00
						CHANNELS 3 Zrotation Xrotation Yrotation
						JOINT RightHand
						{
							OFFSET	 0.00	2.45542024364365	 0.00
							CHANNELS 3 Zrotation Xrotation Yrotation
							JOINT RightHandThumb 
							{
								OFFSET	 0.00	0.00	 0.00
								CHANNELS 3 Zrotation Xrotation Yrotation
								End Site
								{
									OFFSET	 0.00	0.00	1.00000003353624
								}
							}
							JOINT R_Wrist_End 
							{
								OFFSET	 0.00	0.99999967115358	 0.00
								CHANNELS 3 Zrotation Xrotation Yrotation
								End Site 
								{
									OFFSET	 0.00	 0.00	 0.00
								}
							}
						}
					}
				}
			}
		}
	}
	JOINT LeftUpLeg
	{
		OFFSET	 1.2719394002717	 0.00	 0.00
		CHANNELS 3 Zrotation Xrotation Yrotation
		JOINT LeftLowLeg
		{
			OFFSET	 0.00	-4.3429100912261	 0.00
			CHANNELS 3 Zrotation Xrotation Yrotation
			JOINT LeftFoot
			{
				OFFSET	 0.00	-4.48767017425826	 0.00
				CHANNELS 3 Zrotation Xrotation Yrotation
				JOINT LeftToeBase
                {
                    OFFSET	 0.00	0.00	 1.51507020887566
                    CHANNELS 3 Zrotation Xrotation Yrotation
                    End Site 
                    {
                        OFFSET	 0.00	0.00	 0.75000010571191
                    }
                }
			}
		}
	}
	JOINT RightUpLeg
	{
		OFFSET	 -1.2719393604653	 0.00	 0.00
		CHANNELS 3 Zrotation Xrotation Yrotation
		JOINT RightLowLeg
		{
			OFFSET	 0.00	-4.3429100912261	 0.00
			CHANNELS 3 Zrotation Xrotation Yrotation
			JOINT RightFoot
			{
				OFFSET	 0.00	-4.48767017425826	 0.00
				CHANNELS 3 Zrotation Xrotation Yrotation
				JOINT RightToeBase
                {
                    OFFSET	 0.00	0.00	 1.51507020887566
                    CHANNELS 3 Zrotation Xrotation Yrotation
                    End Site 
                    {
                        OFFSET	 0.00	0.00	 0.749999965609858
                    }
                }   
			}
		}
	}
}
MOTION 
Frames:	18 
Frame Time: 0.02 
 -5.012160034179687 -12.229100341796874 9.261649780273437 129.076 87.2361 -90.4332 4.05703 -19.8628 -1.7836 -9.43725 22.9209 6.08201 37.1055 53.5619 329.003 -61.4486 -77.8118 -65.5279 -116.2344 -2.42374 368.033 -46.5647 9.7162 14.5314 0.0 18.6648 0.0 6.44619 -17.8462 -20.5629 0.0 0.0 0.0 0.0 0.0 0.0 121.029495 -3.84977 -363.476 47.1855 3.33243 -367.64 0.0 27.3075 0.0 1.99212 -9.59069 18.466 0.0 0.0 0.0 0.0 0.0 0.0 -4.28623 -3.56919 -11.7559 0.0 18.3119 0.0 -20.196 -7.2712994 5.66066 0.0 -17.61837 0.0 3.04638 -4.04013 16.0203 0.0 22.84 0.0 29.4373 -15.232599 -8.44282 0.0 -17.27425 0.0 
  -5.005230102539063 -12.2397998046875 9.261160278320313 133.618 87.2213 -94.3125 3.9151 -20.0778 -1.89704 -9.32589 22.8259 6.1203 36.7519 53.3623 329.471 -61.2673 -78.0153 -65.5709 -116.3229 -2.55226 368.13 -46.3943 9.73486 14.6104 0.0 19.2742 0.0 6.18169 -17.6145 -22.261 0.0 0.0 0.0 0.0 0.0 0.0 120.9822 -3.85923 -363.208 47.2424 3.12177 -367.909 0.0 27.0143 0.0 2.08314 -9.64341 18.0905 0.0 0.0 0.0 0.0 0.0 0.0 -4.34723 -3.55681 -13.0379 0.0 17.9462 0.0 -20.2932 -7.3836 6.09239 0.0 -17.55085 0.0 3.0352 -4.02783 15.6282 0.0 22.7065 0.0 29.4232 -15.4433 -8.64547 0.0 -17.22102 0.0 
  -4.9978201293945315 -12.248499755859376 9.260960083007813 133.882 87.1992 -94.0159 3.90159 -20.0711 -1.85662 -9.38009 22.7525 6.13743 36.5249 52.9811 329.721 -61.0338 -78.2604 -65.4613 -116.2835 -2.61788 368.072 -46.3382 9.63411 14.6415 0.0 19.8466 0.0 5.7637 -17.1395 -23.2401 0.0 0.0 0.0 0.0 0.0 0.0 121.0996 -3.87872 -363.19 47.2002 3.0677 -367.975 0.0 26.8508 0.0 2.03565 -9.70366 17.8831 0.0 0.0 0.0 0.0 0.0 0.0 -4.37141 -3.59524 -13.2919 0.0 18.0324 0.0 -20.5266 -7.3129005 5.71511 0.0 -17.55299 0.0 3.00559 -3.87439 15.2952 0.0 22.6639 0.0 29.4181 -15.622101 -8.79125 0.0 -17.21801 0.0 
  -4.990650024414062 -12.256300048828125 9.26010986328125 134.659 87.1809 -94.3582 3.9196 -20.0704 -1.78696 -9.42402 22.644 6.15345 36.2471 52.6486 330.018 -60.6563 -78.4397 -65.2232 -116.2872 -2.70801 367.979 -46.1787 9.43484 15.2081 0.0 20.5667 0.0 5.58242 -16.7743 -23.6278 0.0 0.0 0.0 0.0 0.0 0.0 121.1533 -3.85741 -363.176 47.2025 3.00612 -368.024 0.0 26.6757 0.0 2.04815 -9.73885 17.8965 0.0 0.0 0.0 0.0 0.0 0.0 -4.42103 -3.62772 -13.7076 0.0 18.0903 0.0 -20.4477 -7.3162003 5.72969 0.0 -17.58027 0.0 2.99586 -3.78714 15.0925 0.0 22.6701 0.0 29.3698 -15.790701 -8.95437 0.0 -17.22701 0.0 
  -4.9846499633789065 -12.265999755859376 9.259140014648438 135.074 87.1613 -94.3643 3.84869 -20.0886 -1.81607 -9.38264 22.5807 6.18804 35.9915 52.3068 330.211 -60.7841 -78.5855 -65.4291 -116.2938 -2.77697 367.862 -46.0971 9.26631 15.6877 0.0 21.1467 0.0 5.51488 -16.4789 -23.4865 0.0 0.0 0.0 0.0 0.0 0.0 121.1594 -3.82928 -363.26 47.235 3.08729 -367.976 0.0 26.4333 0.0 2.11048 -9.80256 17.6683 0.0 0.0 0.0 0.0 0.0 0.0 -4.46388 -3.6396 -14.1105 0.0 18.158 0.0 -20.4794 -7.3514996 5.71137 0.0 -17.57078 0.0 3.00911 -3.67516 14.951 0.0 22.666 0.0 29.3001 -15.979099 -9.18087 0.0 -17.20998 0.0 
  -4.9779901123046875 -12.277099609375 9.258109741210937 134.969 87.1234 -93.9391 3.83109 -20.1021 -1.7331 -9.43208 22.4929 6.26417 35.927 52.0072 330.243 -60.4152 -78.7169 -65.1298 -116.2147 -2.74072 367.833 -45.9651 9.0758 16.7551 0.0 21.7064 0.0 5.81001 -16.3021 -23.1297 0.0 0.0 0.0 0.0 0.0 0.0 121.1902 -3.84893 -363.317 47.3439 3.0918 -367.848 0.0 26.2567 0.0 2.04318 -9.8048 17.6579 0.0 0.0 0.0 0.0 0.0 0.0 -4.50794 -3.6201 -14.3727 0.0 18.2413 0.0 -20.4369 -7.363001 5.66327 0.0 -17.58246 0.0 3.00449 -3.56553 14.8423 0.0 22.7152 0.0 29.3238 -16.1617 -9.28464 0.0 -17.1793 0.0 
  -4.976279907226562 -12.289599609375 9.233109741210937 136.498 85.799 -95.048 1.95533 -19.6727 -2.74216 -8.7907 21.1961 6.7478 35.1785 51.8493 330.77 -57.7613 -78.1478 -62.6569 -116.0014 -3.12157 368.28 -46.3684 9.14036 17.9257 0.0 22.0241 0.0 6.27339 -16.2273 -22.176 0.0 0.0 0.0 0.0 0.0 0.0 120.4117 -4.08012 -363.782 47.9377 3.04257 -367.947 0.0 26.2469 0.0 1.95156 -9.96457 17.6397 0.0 0.0 0.0 0.0 0.0 0.0 -5.75058 -3.79059 -14.5162 0.0 18.2213 0.0 -20.432 -7.084999 5.46298 0.0 -17.70371 0.0 2.28344 -4.09831 16.9067 0.0 24.2404 0.0 30.854 -18.9133 -9.35642 0.0 -16.1585 0.0 
  -4.9709100341796875 -12.29949951171875 9.232449951171875 137.093 85.7994 -95.4251 1.97072 -19.7294 -2.70543 -8.81165 21.1058 6.74527 35.0533 51.7884 330.944 -57.5556 -78.2031 -62.503 -116.0384 -3.05942 368.167 -46.17 8.95175 19.1895 0.0 22.2516 0.0 6.82394 -16.2447 -21.1715 0.0 0.0 0.0 0.0 0.0 0.0 120.4172 -4.06065 -363.794 48.0138 3.07065 -368.048 0.0 26.1224 0.0 1.86987 -9.99761 17.5476 0.0 0.0 0.0 0.0 0.0 0.0 -5.75165 -3.81546 -14.6939 0.0 18.3063 0.0 -20.3614 -7.1173 5.44913 0.0 -17.73452 0.0 2.28182 -4.03235 16.667 0.0 24.2113 0.0 30.8407 -18.952599 -9.32755 0.0 -16.17466 0.0 
  -4.964660034179688 -12.3122998046875 9.231719970703125 137.473 85.7901 -95.5542 1.92254 -19.8464 -2.75035 -8.81611 21.0637 6.72652 35.0065 51.7636 331.025 -57.3765 -78.2316 -62.245 -116.0585 -2.99804 368.146 -46.0295 8.89097 20.2156 0.0 22.2761 0.0 7.22676 -16.3604 -20.4958 0.0 0.0 0.0 0.0 0.0 0.0 120.3932 -4.05074 -363.817 48.0925 3.08638 -368.256 0.0 26.0767 0.0 1.86694 -10.0066 17.6161 0.0 0.0 0.0 0.0 0.0 0.0 -5.74614 -3.80213 -14.8826 0.0 18.3731 0.0 -20.3427 -7.1438007 5.3723 0.0 -17.7589 0.0 2.26613 -3.90308 16.3717 0.0 24.1237 0.0 30.8405 -19.000801 -9.27685 0.0 -16.17596 0.0 
  -4.958789978027344 -12.325 9.231199951171876 136.455 85.7961 -94.365 1.92651 -19.8427 -2.74227 -8.86534 20.9863 6.68866 34.9913 51.8101 331.108 -57.3274 -78.2674 -62.0556 -116.071 -2.96527 368.168 -45.8797 8.91667 21.1019 0.0 22.1694 0.0 7.30035 -16.5225 -20.8103 0.0 0.0 0.0 0.0 0.0 0.0 120.4254 -4.06481 -363.846 48.1361 3.09633 -368.425 0.0 26.1147 0.0 1.97129 -10.0207 17.8653 0.0 0.0 0.0 0.0 0.0 0.0 -5.71333 -3.66599 -14.9149 0.0 18.3991 0.0 -20.3275 -7.1488 5.23958 0.0 -17.765461 0.0 2.26306 -3.68836 16.1342 0.0 24.048 0.0 30.7588 -19.0253 -9.27174 0.0 -16.14849 0.0 
  -4.952890014648437 -12.338699951171876 9.231229858398438 135.652 85.7941 -93.4216 1.86519 -19.9197 -2.81922 -8.83163 20.9975 6.67296 34.7763 51.8826 331.391 -57.4494 -78.2674 -62.0666 -116.1136 -2.90999 368.122 -45.8134 8.9191 21.6003 0.0 21.9522 0.0 7.28245 -16.6124 -21.2061 0.0 0.0 0.0 0.0 0.0 0.0 120.3921 -4.09771 -363.758 48.1788 3.04626 -368.755 0.0 26.2526 0.0 1.91304 -10.024 18.2031 0.0 0.0 0.0 0.0 0.0 0.0 -5.65333 -3.54081 -14.7532 0.0 18.4081 0.0 -20.2897 -7.0825005 4.9649 0.0 -17.82891 0.0 2.26732 -3.47792 15.9745 0.0 23.9526 0.0 30.6885 -19.061798 -9.30741 0.0 -16.11624 0.0 
  -4.947650146484375 -12.35300048828125 9.231099853515625 135.955 85.7567 -93.6604 1.78059 -20.0542 -2.90049 -8.77539 20.9569 6.6708 34.3916 52.0203 331.858 -57.9506 -78.251 -62.5085 -116.101105 -2.89236 368.121 -45.8549 8.972 21.6956 0.0 21.6653 0.0 7.19739 -16.6047 -21.0722 0.0 0.0 0.0 0.0 0.0 0.0 120.34 -4.12784 -363.798 48.2159 3.06228 -368.936 0.0 26.4059 0.0 2.05619 -9.95805 18.9318 0.0 0.0 0.0 0.0 0.0 0.0 -5.61081 -3.45396 -14.672 0.0 18.3505 0.0 -20.2115 -7.0258007 4.79224 0.0 -17.91112 0.0 2.24674 -3.39889 15.8095 0.0 23.9339 0.0 30.6263 -19.073399 -9.25743 0.0 -16.11529 0.0 
  -4.943659973144531 -12.36719970703125 9.231300048828125 136.087 85.7321 -93.7269 1.71797 -20.136 -2.96934 -8.73757 20.878 6.64123 33.7953 52.2006 332.634 -58.4323 -78.2756 -63.0612 -116.0833 -2.87134 368.131 -45.8375 8.99316 21.7873 0.0 21.4964 0.0 7.14282 -16.6806 -20.6635 0.0 0.0 0.0 0.0 0.0 0.0 120.3442 -4.23336 -363.81 48.2188 3.05478 -369.08 0.0 26.6579 0.0 1.97667 -9.8577 19.0621 0.0 0.0 0.0 0.0 0.0 0.0 -5.52414 -3.36576 -14.4161 0.0 18.2894 0.0 -20.3278 -6.930599 4.37126 0.0 -17.93433 0.0 2.23558 -3.32776 15.5852 0.0 23.9348 0.0 30.5495 -19.0354 -9.17544 0.0 -16.14179 0.0 
  -4.940060119628907 -12.381600341796876 9.231530151367188 136.346 85.6753 -93.9206 1.59557 -20.2263 -3.09928 -8.65734 20.8366 6.62334 33.0345 52.2056 333.456 -59.3899 -78.3 -63.9422 -116.027 -2.90936 368.148 -45.8878 9.07062 21.8321 0.0 21.4052 0.0 7.31767 -16.6825 -20.0078 0.0 0.0 0.0 0.0 0.0 0.0 120.3052 -4.38348 -363.746 48.2273 3.00259 -369.313 0.0 27.0009 0.0 1.68442 -9.81061 19.008 0.0 0.0 0.0 0.0 0.0 0.0 -5.45605 -3.2846 -14.1115 0.0 18.2116 0.0 -20.3948 -6.7929993 3.93767 0.0 -18.00036 0.0 2.20824 -3.26669 15.4216 0.0 23.938 0.0 30.489 -19.0467 -9.12695 0.0 -16.17987 0.0 
  -4.938240051269531 -12.398199462890625 9.231939697265625 136.251 85.5702 -93.8285 1.38071 -20.2791 -3.27311 -8.51813 20.7616 6.65672 32.0425 52.204 334.517 -60.4178 -78.291 -64.9975 -116.007904 -3.00486 368.179 -45.8476 9.10841 21.9461 0.0 21.5051 0.0 7.48756 -16.5926 -18.9909 0.0 0.0 0.0 0.0 0.0 0.0 120.2339 -4.48397 -363.772 48.2335 2.90998 -369.46 0.0 27.3933 0.0 1.32001 -9.76616 19.6967 0.0 0.0 0.0 0.0 0.0 0.0 -5.39852 -3.11845 -13.7206 0.0 18.0169 0.0 -20.3756 -6.5897007 3.53432 0.0 -18.10975 0.0 2.18256 -3.23277 15.4086 0.0 24.056 0.0 30.3731 -19.108398 -9.16279 0.0 -16.21741 0.0 
  -4.935639953613281 -12.413699951171875 9.23260009765625 137.305 85.4781 -94.8729 1.22479 -20.3959 -3.4168 -8.39887 20.6674 6.65598 31.0115 52.14 335.597 -61.4967 -78.284 -65.9998 -115.9716 -3.09788 368.372 -45.8077 9.20891 21.9781 0.0 21.7166 0.0 7.88712 -16.4096 -17.3453 0.0 0.0 0.0 0.0 0.0 0.0 120.1468 -4.61953 -363.618 48.2309 2.68082 -369.809 0.0 27.7858 0.0 0.486955 -9.64538 19.6775 0.0 0.0 0.0 0.0 0.0 0.0 -5.3451 -3.05575 -13.3824 0.0 17.8494 0.0 -20.4744 -6.4216003 3.13032 0.0 -18.185669 0.0 2.1492 -3.28177 15.3098 0.0 24.1414 0.0 30.2363 -19.1287 -9.16473 0.0 -16.18764 0.0 
  -4.934769897460938 -12.428499755859375 9.232239990234374 137.644 85.3813 -95.1198 1.07557 -20.3875 -3.55087 -8.3302 20.4546 6.6047 29.9551 52.1392 336.726 -62.7575 -78.2645 -67.2887 -115.9098 -3.19648 368.613 -45.7069 9.29104 22.0727 0.0 21.991 0.0 8.24782 -16.0837 -15.6995 0.0 0.0 0.0 0.0 0.0 0.0 120.0898 -4.72514 -363.647 48.2568 2.48911 -370.027 0.0 28.0991 0.0 -0.765846 -9.35455 19.8605 0.0 0.0 0.0 0.0 0.0 0.0 -5.30556 -3.01772 -13.0636 0.0 17.8049 0.0 -20.532 -6.2565994 2.68689 0.0 -18.26662 0.0 2.13044 -3.30704 15.1836 0.0 24.2946 0.0 30.1468 -19.1898 -9.18147 0.0 -16.24901 0.0 
  -4.934509887695312 -12.443299560546874 9.2314501953125 139.462 85.2484 -96.8441 0.883271 -20.5488 -3.68535 -8.25631 20.3365 6.62931 29.004 52.049 337.746 -63.5418 -78.2599 -68.0064 -115.8923 -3.36547 368.73 -45.5038 9.39636 22.6289 0.0 22.4075 0.0 8.82106 -15.9106 -13.59 0.0 0.0 0.0 0.0 0.0 0.0 119.9607 -4.7785 -363.536 48.3374 2.15373 -370.304 0.0 28.3872 0.0 -2.39756 -9.05987 20.4516 0.0 0.0 0.0 0.0 0.0 0.0 -5.29434 -3.12684 -12.8026 0.0 17.8084 0.0 -20.488 -6.0935993 2.31217 0.0 -18.35401 0.0 2.09245 -3.48512 15.026 0.0 24.4976 0.0 30.0371 -19.2742 -9.16501 0.0 -16.25688 0.0 
